<svg width="44" height="47" viewBox="0 0 44 47" fill="none" xmlns="http://www.w3.org/2000/svg">
<circle cx="21.8185" cy="21.6373" r="21.6373" fill="#F9AA1B"/>
<path d="M21.4396 8.38965C14.2549 8.38965 8.43555 14.1675 8.43555 21.2936C8.43555 26.9959 12.1612 31.8316 17.3271 33.5365C17.9773 33.658 18.2157 33.2586 18.2157 32.9161C18.2157 32.6097 18.2048 31.7977 18.1994 30.722C14.5821 31.5001 13.8192 28.9908 13.8192 28.9908C13.2275 27.5015 12.3725 27.1032 12.3725 27.1032C11.1946 26.3032 12.4636 26.3197 12.4636 26.3197C13.7694 26.4094 14.4553 27.6492 14.4553 27.6492C15.6149 29.6222 17.4994 29.0521 18.2428 28.7227C18.3598 27.8878 18.6947 27.3198 19.0664 26.997C16.1784 26.6742 13.143 25.5646 13.143 20.6206C13.143 19.2122 13.6469 18.061 14.4814 17.1582C14.3351 16.8321 13.8962 15.5201 14.5951 13.7429C14.5951 13.7429 15.6842 13.3971 18.1713 15.0659C19.2116 14.7792 20.3169 14.637 21.4223 14.6304C22.5276 14.637 23.633 14.7792 24.6733 15.0659C27.1441 13.3971 28.2331 13.7429 28.2331 13.7429C28.9321 15.5201 28.4932 16.8321 28.3632 17.1582C29.1922 18.061 29.6961 19.2122 29.6961 20.6206C29.6961 25.5777 26.6564 26.6687 23.763 26.9861C24.2181 27.3735 24.6408 28.1646 24.6408 29.3738C24.6408 31.1006 24.6245 32.4882 24.6245 32.9073C24.6245 33.2455 24.8521 33.6492 25.5185 33.5201C30.7213 31.8262 34.4437 26.9872 34.4437 21.2936C34.4437 14.1675 28.6211 8.38965 21.4396 8.38965Z" fill="white"/>
</svg>
