<svg width="44" height="44" viewBox="0 0 44 44" fill="none" xmlns="http://www.w3.org/2000/svg">
<circle cx="22.1813" cy="21.6373" r="21.6373" fill="#F9AA1B"/>
<path fill-rule="evenodd" clip-rule="evenodd" d="M32.086 17.503C32.0128 15.9333 31.6598 14.5428 30.5276 13.3973C29.3998 12.2517 28.0308 11.8932 26.4854 11.8145C24.8926 11.7227 20.1186 11.7227 18.5258 11.8145C16.9847 11.8888 15.6157 12.2473 14.4836 13.3929C13.3514 14.5385 13.0027 15.9289 12.9252 17.4986C12.8348 19.1164 12.8348 23.9654 12.9252 25.5832C12.9984 27.1529 13.3514 28.5433 14.4836 29.6889C15.6157 30.8344 16.9804 31.193 18.5258 31.2717C20.1186 31.3635 24.8926 31.3635 26.4854 31.2717C28.0308 31.1973 29.3998 30.8388 30.5276 29.6889C31.6555 28.5433 32.0085 27.1529 32.086 25.5832C32.1764 23.9654 32.1764 19.1208 32.086 17.503ZM27.6562 17.4856C28.2933 17.4856 28.8099 16.9653 28.8099 16.3138C28.8099 15.6667 28.2933 15.142 27.6562 15.142C27.0191 15.142 26.5025 15.6667 26.5025 16.3138C26.5025 16.9609 27.0148 17.4856 27.6562 17.4856ZM22.5076 16.5192C19.7698 16.5192 17.5614 18.7623 17.5614 21.5431C17.5614 24.324 19.7698 26.567 22.5076 26.567C25.2455 26.567 27.4539 24.324 27.4539 21.5431C27.4539 18.7623 25.2455 16.5192 22.5076 16.5192ZM22.5077 24.809C20.7384 24.809 19.292 23.3443 19.292 21.5428C19.292 19.7414 20.7341 18.2767 22.5077 18.2767C24.2813 18.2767 25.7234 19.7414 25.7234 21.5428C25.7234 23.3443 24.2769 24.809 22.5077 24.809ZM28.1943 29.1813C29.0424 28.8359 29.6924 28.1757 30.0282 27.3187C30.4602 26.2161 30.4361 23.8043 30.4205 22.2409C30.418 21.9815 30.4156 21.7455 30.4156 21.5427C30.4156 21.3399 30.418 21.1039 30.4205 20.8447C30.4361 19.2821 30.4602 16.8731 30.0282 15.7668C29.6881 14.9054 29.0381 14.2452 28.1943 13.9041C27.1054 13.4677 24.7193 13.491 23.1805 13.506C22.9309 13.5084 22.7035 13.5106 22.5077 13.5106C22.308 13.5106 22.0756 13.5082 21.8204 13.5056C20.282 13.4898 17.9102 13.4654 16.821 13.9041C15.9729 14.2496 15.3229 14.9098 14.9871 15.7668C14.5575 16.8728 14.5804 19.2963 14.5951 20.8593C14.5975 21.1129 14.5997 21.3438 14.5997 21.5427C14.5997 21.7456 14.5974 21.9815 14.5948 22.2408C14.5792 23.8034 14.5551 26.2124 14.9871 27.3187C15.3272 28.18 15.9772 28.8403 16.821 29.1813C17.91 29.6177 20.296 29.5945 21.8348 29.5795C22.0844 29.5771 22.3118 29.5748 22.5077 29.5748C22.7074 29.5748 22.9397 29.5772 23.1949 29.5799C24.7333 29.5957 27.1051 29.6201 28.1943 29.1813Z" fill="white"/>
</svg>
