<svg width="44" height="44" viewBox="0 0 44 44" fill="none" xmlns="http://www.w3.org/2000/svg">
<circle cx="22.3624" cy="21.6373" r="21.6373" fill="#F9AA1B"/>
<g clip-path="url(#clip0_2322_674)">
<path d="M15.449 17.0844H18.7028V27.55H15.449V17.0844ZM17.076 11.8821C18.1159 11.8821 18.9611 12.7272 18.9611 13.7689C18.9611 14.8095 18.1159 15.6547 17.076 15.6547C16.0336 15.6547 15.1909 14.8095 15.1909 13.7689C15.1909 12.7272 16.0336 11.8821 17.076 11.8821Z" fill="white"/>
<path d="M20.7432 17.0846H23.8632V18.5157H23.9076C24.3419 17.6925 25.4033 16.8254 26.9852 16.8254C30.2791 16.8254 30.8871 18.9923 30.8871 21.8103V27.5503H27.6357V22.4608C27.6357 21.2468 27.6146 19.6858 25.9455 19.6858C24.2528 19.6858 23.9945 21.0089 23.9945 22.3736V27.5503H20.7432V17.0846Z" fill="white"/>
</g>
<defs>
<clipPath id="clip0_2322_674">
<rect width="15.9405" height="15.9405" fill="white" transform="translate(15.0684 11.7456)"/>
</clipPath>
</defs>
</svg>
