<svg width="44" height="44" viewBox="0 0 44 44" fill="none" xmlns="http://www.w3.org/2000/svg">
<circle cx="21.6373" cy="21.6373" r="21.6373" fill="#F9AA1B"/>
<path d="M29.1492 17.6033C29.1608 17.7672 29.1608 17.931 29.1608 18.0949C29.1608 23.092 25.394 28.8498 18.5094 28.8498C16.3884 28.8498 14.4181 28.2295 12.7607 27.1529C13.0621 27.188 13.3518 27.1997 13.6648 27.1997C15.4148 27.1997 17.0259 26.6029 18.3124 25.5847C16.6666 25.5496 15.2874 24.4612 14.8122 22.9633C15.044 22.9983 15.2758 23.0218 15.5192 23.0218C15.8553 23.0218 16.1914 22.9749 16.5044 22.8931C14.789 22.5419 13.5025 21.0206 13.5025 19.1832V19.1364C14.0008 19.4173 14.5804 19.5928 15.1946 19.6162C14.1863 18.9374 13.5257 17.7789 13.5257 16.4681C13.5257 15.766 13.7111 15.1223 14.0356 14.5606C15.8785 16.8543 18.6485 18.3523 21.7546 18.5161C21.6967 18.2353 21.6619 17.9427 21.6619 17.6502C21.6619 15.567 23.3309 13.8701 25.4055 13.8701C26.4834 13.8701 27.457 14.3265 28.1408 15.0638C28.9868 14.9 29.7981 14.584 30.5168 14.151C30.2386 15.0287 29.6475 15.766 28.871 16.2341C29.6243 16.1522 30.3545 15.9415 31.0267 15.649C30.5168 16.3979 29.8793 17.065 29.1492 17.6033Z" fill="white"/>
</svg>
