<svg width="44" height="44" viewBox="0 0 44 44" fill="none" xmlns="http://www.w3.org/2000/svg">
<circle cx="22.0001" cy="21.6373" r="21.6373" fill="#F9AA1B"/>
<path d="M22.5547 32.6507C19.575 32.6507 16.7174 31.4671 14.6104 29.3602C12.5035 27.2532 11.3198 24.3955 11.3198 21.4158C11.3198 18.4361 12.5035 15.5784 14.6104 13.4714C16.7174 11.3646 19.5751 10.1809 22.5547 10.1809C25.5344 10.1809 28.3921 11.3646 30.4991 13.4714C32.606 15.5784 33.7896 18.4361 33.7896 21.4158C33.7896 23.3879 33.2705 25.3253 32.2845 27.0332C31.2984 28.7411 29.8802 30.1594 28.1722 31.1454C26.4643 32.1315 24.527 32.6506 22.5549 32.6506L22.5547 32.6507ZM22.5547 11.6791C19.9724 11.6791 17.4959 12.705 15.6696 14.531C13.8436 16.357 12.8178 18.8336 12.8178 21.4161C12.8178 23.9986 13.8436 26.4749 15.6696 28.3012C17.4956 30.1271 19.9722 31.153 22.5547 31.153C25.1372 31.153 27.6136 30.1271 29.4398 28.3012C31.2658 26.4752 32.2917 23.9986 32.2917 21.4161C32.2917 18.8336 31.2658 16.3572 29.4398 14.531C27.6138 12.705 25.1372 11.6791 22.5547 11.6791Z" fill="white"/>
<path d="M22.2025 20.8615C18.8026 20.7863 15.448 20.0671 12.3159 18.7418L12.9226 17.3713C13.0425 17.4238 25.0339 22.6668 31.1153 15.7534L32.2388 16.7422C29.4526 19.9178 25.7003 20.8616 22.2024 20.8616L22.2025 20.8615Z" fill="white"/>
<path d="M14.7349 28.224L13.7612 27.0854C14.2031 26.7034 24.7264 17.8652 33.4446 23.3779L32.6431 24.6437C24.8613 19.7231 14.8322 28.1565 14.735 28.2239L14.7349 28.224Z" fill="white"/>
<path d="M22.7943 32.3733L21.6334 31.4296C30.284 20.8167 21.6782 11.8288 21.3037 11.4543L22.3747 10.4058C22.4721 10.5106 32.2912 20.7341 22.7943 32.3733L22.7943 32.3733Z" fill="white"/>
</svg>
